<?xml version="1.0" encoding="UTF-8" standalone="no"?>
<!-- Created with Inkscape (http://www.inkscape.org/) -->

<svg
   width="108"
   height="108"
   viewBox="0 0 27 27"
   version="1.1"
   id="svg1"
   inkscape:version="1.3.2 (091e20e, 2023-11-25)"
   sodipodi:docname="icon_fg.svg"
   xmlns:inkscape="http://www.inkscape.org/namespaces/inkscape"
   xmlns:sodipodi="http://sodipodi.sourceforge.net/DTD/sodipodi-0.dtd"
   xmlns="http://www.w3.org/2000/svg"
   xmlns:svg="http://www.w3.org/2000/svg">
  <sodipodi:namedview
     id="namedview1"
     pagecolor="#505050"
     bordercolor="#ffffff"
     borderopacity="1"
     inkscape:showpageshadow="0"
     inkscape:pageopacity="0"
     inkscape:pagecheckerboard="1"
     inkscape:deskcolor="#505050"
     inkscape:document-units="px"
     showguides="true"
     inkscape:zoom="4.4044578"
     inkscape:cx="44.50037"
     inkscape:cy="48.814181"
     inkscape:window-width="1440"
     inkscape:window-height="847"
     inkscape:window-x="1708"
     inkscape:window-y="126"
     inkscape:window-maximized="0"
     inkscape:current-layer="layer1"
     showgrid="false">
    <sodipodi:guide
       position="30.342709,55.416188"
       orientation="0,-1"
       id="guide1"
       inkscape:locked="false" />
    <sodipodi:guide
       position="4.5,28.532538"
       orientation="-1,0"
       id="guide2"
       inkscape:locked="false"
       inkscape:label=""
       inkscape:color="rgb(0,134,229)" />
    <sodipodi:guide
       position="8.4005799,22.5"
       orientation="0,1"
       id="guide3"
       inkscape:locked="false"
       inkscape:label=""
       inkscape:color="rgb(0,134,229)" />
    <sodipodi:guide
       position="9.7628361,4.5"
       orientation="0,1"
       id="guide4"
       inkscape:locked="false"
       inkscape:label=""
       inkscape:color="rgb(0,134,229)" />
    <sodipodi:guide
       position="22.5,28.475778"
       orientation="-1,0"
       id="guide5"
       inkscape:locked="false"
       inkscape:label=""
       inkscape:color="rgb(0,134,229)" />
  </sodipodi:namedview>
  <defs
     id="defs1" />
  <g
     inkscape:label="Layer 1"
     inkscape:groupmode="layer"
     id="layer1">
    <g
       id="g4"
       style="stroke:none"
       transform="matrix(0.44686155,0,0,0.44686155,2.8106378,1.2682128)">
      <circle
         style="fill:#ffffff;stroke:none;stroke-width:0.20125;stroke-linecap:round"
         id="path1"
         cx="38.931782"
         cy="13.405376"
         r="4.7360311" />
      <path
         style="fill:#ffffff;stroke:none;stroke-width:0.20125;stroke-linecap:round"
         d="M 23.118254,33.874666 33.573055,25.424293 C 37.404157,19.699174 33.99225,12.379247 27.272907,16.289454 L 18.689538,26.896731 Z"
         id="path2"
         sodipodi:nodetypes="ccccc" />
      <path
         style="fill:#ffffff;stroke:none;stroke-width:0.20125;stroke-linecap:round"
         d="M 22.094791,34.316158 6.1006506,43.748086 4.1741293,46.075965 4.816303,41.58075 18.562835,29.178768 Z"
         id="path3"
         sodipodi:nodetypes="cccccc" />
      <path
         style="fill:#ffffff;stroke:none;stroke-width:0.20125;stroke-linecap:round"
         d="M 25.996389,16.687638 8.1735371,30.196678 9.3087509,24.974697 Z"
         id="path4"
         sodipodi:nodetypes="cccc" />
    </g>
    <path
       style="font-weight:bold;font-size:3.94059px;line-height:1.25;font-family:Eurostile;-inkscape-font-specification:'Eurostile, Bold';fill:#870000;stroke-width:0.0216283;stroke-linecap:round"
       d="M 17.903444,-1.6178185 V -4.244237 h 1.291082 q 0.454092,0 0.617641,0.1462328 0.165474,0.1443087 0.165474,0.546449 0,0.4868014 -0.386747,0.5733866 v 0.00962 q 0.450243,0.069268 0.450243,0.6253377 0,0.4021403 -0.17317,0.5637661 -0.173171,0.1616257 -0.604173,0.1616257 z m 0.498346,-1.5239 h 0.609945 q 0.296314,0 0.377127,-0.06542 0.08274,-0.06542 0.08274,-0.3020863 0,-0.315555 -0.357886,-0.315555 H 18.40179 Z m 0,1.1044427 h 0.546449 l 0.175095,-0.00385 q 0.252059,0 0.330948,-0.071192 0.08081,-0.071192 0.08081,-0.3001622 0,-0.2385904 -0.08466,-0.3001621 -0.08274,-0.061572 -0.411761,-0.061572 H 18.40179 Z"
       id="text4"
       transform="matrix(0.75422495,0.68616044,-0.65997817,0.72544549,0,0)"
       aria-label="B" />
  </g>
</svg>
